<?xml version="1.0" standalone="no"?>
<!DOCTYPE svg PUBLIC "-//W3C//DTD SVG 20010904//EN"
 "http://www.w3.org/TR/2001/REC-SVG-20010904/DTD/svg10.dtd">
<svg version="1.0" xmlns="http://www.w3.org/2000/svg"
 width="2006.000000pt" height="665.000000pt" viewBox="0 0 2006.000000 665.000000"
 preserveAspectRatio="xMidYMid meet">
<metadata>
Created by potrace 1.11, written by Peter Selinger 2001-2013
</metadata>
<g transform="translate(0.000000,665.000000) scale(0.100000,-0.100000)"
fill="#000000" stroke="none">
<path d="M7350 5779 c-345 -38 -722 -138 -1073 -286 -425 -178 -832 -414
-1532 -888 -176 -120 -412 -278 -525 -353 -701 -464 -1195 -689 -1635 -747
-229 -30 -338 -16 -485 61 -184 96 -315 265 -365 468 -36 149 -36 376 0 517
55 214 201 398 394 498 115 59 199 82 327 88 227 11 411 -63 573 -231 52 -54
69 -66 95 -66 49 0 80 38 73 88 -12 91 -112 256 -231 380 -133 139 -285 226
-476 275 -114 29 -372 31 -500 4 -487 -102 -857 -351 -1130 -760 -404 -605
-447 -1368 -114 -2036 255 -513 616 -857 1206 -1151 581 -289 1285 -480 2068
-559 1196 -122 2432 45 3580 484 741 284 1505 723 2124 1222 l78 63 37 -30
c179 -149 580 -435 816 -582 1688 -1051 3732 -1434 5625 -1053 1041 210 1862
621 2283 1145 337 419 517 901 517 1387 0 524 -202 1023 -560 1383 -227 229
-445 360 -741 445 -464 134 -846 58 -1130 -224 -114 -114 -248 -333 -249 -409
0 -33 43 -72 79 -72 25 0 46 15 109 78 140 141 293 210 482 220 420 20 764
-275 821 -703 15 -113 6 -282 -21 -395 -63 -264 -262 -468 -521 -535 -197 -51
-612 30 -994 194 -349 150 -675 349 -1540 936 -786 533 -1254 788 -1770 965
-395 134 -717 190 -1111 190 -528 0 -1029 -96 -1436 -275 -218 -96 -433 -239
-611 -405 l-87 -82 -93 88 c-364 349 -848 552 -1530 645 -174 23 -678 35 -827
18z"/>
</g>
</svg>
